<?xml version="1.0" encoding="UTF-8" standalone="no"?>
<!-- Uploaded to: SVG Repo, www.svgrepo.com, Transformed by: SVG Repo Mixer Tools -->

<svg
   width="800px"
   height="800px"
   viewBox="0 0 24 24"
   fill="none"
   version="1.1"
   id="svg1"
   sodipodi:docname="locked_icon.svg"
   xml:space="preserve"
   inkscape:version="1.4 (86a8ad7, 2024-10-11)"
   xmlns:inkscape="http://www.inkscape.org/namespaces/inkscape"
   xmlns:sodipodi="http://sodipodi.sourceforge.net/DTD/sodipodi-0.dtd"
   xmlns="http://www.w3.org/2000/svg"
   xmlns:svg="http://www.w3.org/2000/svg"><defs
     id="defs1" /><sodipodi:namedview
     id="namedview1"
     pagecolor="#505050"
     bordercolor="#eeeeee"
     borderopacity="1"
     inkscape:showpageshadow="0"
     inkscape:pageopacity="0"
     inkscape:pagecheckerboard="0"
     inkscape:deskcolor="#505050"
     inkscape:zoom="0.4825"
     inkscape:cx="167.87565"
     inkscape:cy="652.84974"
     inkscape:window-width="1920"
     inkscape:window-height="991"
     inkscape:window-x="-9"
     inkscape:window-y="-9"
     inkscape:window-maximized="1"
     inkscape:current-layer="svg1" /><g
     id="SVGRepo_bgCarrier"
     stroke-width="0" /><g
     id="SVGRepo_tracerCarrier"
     stroke-linecap="round"
     stroke-linejoin="round" /><path
     d="m 18.577213,20.400083 c 0,0.662385 -0.58932,1.199972 -1.315443,1.199972 H 6.7382297 c -0.7261244,0 -1.3154426,-0.537587 -1.3154426,-1.199972 v -9.599781 c 0,-0.662384 0.5893182,-1.1999714 1.3154426,-1.1999714 H 17.26177 c 0.726123,0 1.315443,0.5375874 1.315443,1.1999714 z M 9.3691151,4.8004409 c 0,-1.3235697 1.1799529,-2.3999441 2.6308849,-2.3999441 1.450932,0 2.630885,1.1999715 2.630885,2.3999441 v 2.399944 H 9.3691151 Z m 9.2080979,2.399944 H 17.26177 v -2.399944 c 0,-2.6963373 -2.974216,-5.39387597 -6.36148,-4.68589218 C 8.4035801,0.63653671 6.7382297,2.8096864 6.7382297,5.1460319 v 2.054353 H 5.4227871 c -1.453564,0 -2.6308851,1.0739755 -2.6308851,2.3999457 V 21.600055 C 2.791902,22.926024 3.9692231,24 5.4227871,24 H 18.577213 c 1.453563,0 2.630885,-1.073976 2.630885,-2.399945 V 9.6003306 c 0,-1.3259702 -1.177322,-2.3999457 -2.630885,-2.3999457 z"
     id="lock_close_minus_round-[#715]"
     style="fill:#c2c2c2;fill-opacity:1;fill-rule:evenodd;stroke:none;stroke-width:1.25638"
     sodipodi:nodetypes="ssssssssssssccsscscscssssssss" /></svg>
