<?xml version="1.0" encoding="UTF-8" standalone="no"?>
<svg
   viewBox="0 0 20 20"
   xml:space="preserve"
   version="1.1"
   id="svg1"
   sodipodi:docname="reload_icon.svg"
   inkscape:version="1.4 (86a8ad7, 2024-10-11)"
   xmlns:inkscape="http://www.inkscape.org/namespaces/inkscape"
   xmlns:sodipodi="http://sodipodi.sourceforge.net/DTD/sodipodi-0.dtd"
   xmlns="http://www.w3.org/2000/svg"
   xmlns:svg="http://www.w3.org/2000/svg"><defs
   id="defs1"><inkscape:path-effect
     effect="bspline"
     id="path-effect2"
     is_visible="true"
     lpeversion="1.3"
     weight="33.333333"
     steps="2"
     helper_size="0"
     apply_no_weight="true"
     apply_with_weight="true"
     only_selected="false"
     uniform="false" /></defs><sodipodi:namedview
   id="namedview1"
   pagecolor="#505050"
   bordercolor="#eeeeee"
   borderopacity="1"
   inkscape:showpageshadow="0"
   inkscape:pageopacity="0"
   inkscape:pagecheckerboard="0"
   inkscape:deskcolor="#505050"
   inkscape:zoom="14.767157"
   inkscape:cx="20.315353"
   inkscape:cy="8.8710373"
   inkscape:window-width="1920"
   inkscape:window-height="991"
   inkscape:window-x="-9"
   inkscape:window-y="-9"
   inkscape:window-maximized="1"
   inkscape:current-layer="svg1" />
    
<g
   style="fill:#c2c2c2;fill-opacity:1;stroke:#c2c2c2;stroke-opacity:1;stroke-width:21.51519159;stroke-dasharray:none"
   id="g2"
   transform="matrix(-0.03485909,0,0,-0.03485909,18.534299,18.534287)"><g
     id="g1"
     style="fill:#c2c2c2;fill-opacity:1;stroke:#c2c2c2;stroke-opacity:1;stroke-width:21.51519159;stroke-dasharray:none">
	<path
   d="m 460.656,132.911 c -58.7,-122.1 -212.2,-166.5 -331.8,-104.1 -9.4,5.2 -13.5,16.6 -8.3,27 5.2,9.4 16.6,13.5 27,8.3 99.9,-52 227.4,-14.9 276.7,86.3 65.4,134.3 -19,236.7 -87.4,274.6 -93.1,51.7 -211.2,17.4 -267.6,-70.7 l 69.3,14.5 c 10.4,2.1 21.8,-4.2 23.9,-15.6 2.1,-10.4 -4.2,-21.8 -15.6,-23.9 l -122.8,-25 c -20.6,-2 -25,16.6 -23.9,22.9 l 15.6,123.8 c 1,10.4 9.4,17.7 19.8,17.7 12.8,0 20.8,-12.5 19.8,-23.9 l -6,-50.5 c 57.4,70.8 170.3,131.2 307.4,68.2 58.1,-30 191.5,-147.7 103.9,-329.6 z"
   id="path1"
   style="fill:#c2c2c2;fill-opacity:1;stroke:#c2c2c2;stroke-opacity:1;stroke-width:21.51519159;stroke-dasharray:none" />
</g></g></svg>
