<svg width="214" height="214" viewBox="0 0 214 214" fill="none" xmlns="http://www.w3.org/2000/svg">
<rect width="214" height="214" rx="50" fill="url(#paint0_linear_15_8)"/>
<path d="M161.414 150.744L153.455 144.504C159.279 138.936 163.485 133.176 166.074 127.224C168.662 121.208 169.956 114.424 169.956 106.872C169.956 99.256 168.662 92.472 166.074 86.52C163.485 80.568 159.279 74.808 153.455 69.24L161.414 63C167.692 68.504 172.674 74.936 176.363 82.296C180.052 89.656 181.896 97.848 181.896 106.872C181.896 115.896 180.052 124.088 176.363 131.448C172.674 138.744 167.692 145.176 161.414 150.744Z" fill="white"/>
<path d="M115.83 134.712C113.63 134.712 111.365 134.168 109.035 133.08C106.77 131.992 104.667 130.424 102.725 128.376H102.337L101.172 133.56H90.0094V66.264H104.279V82.776L103.793 90.264H104.084C105.961 88.536 108.032 87.192 110.297 86.232C112.627 85.272 114.956 84.792 117.286 84.792C121.363 84.792 124.825 85.784 127.672 87.768C130.584 89.752 132.817 92.568 134.37 96.216C135.923 99.8 136.7 104.024 136.7 108.888C136.7 114.328 135.697 119 133.691 122.904C131.749 126.744 129.193 129.688 126.022 131.736C122.851 133.72 119.454 134.712 115.83 134.712ZM112.627 123.192C114.374 123.192 115.959 122.712 117.383 121.752C118.807 120.792 119.939 119.288 120.78 117.24C121.622 115.128 122.042 112.44 122.042 109.176C122.042 106.296 121.719 103.928 121.072 102.072C120.424 100.152 119.454 98.712 118.159 97.752C116.93 96.792 115.28 96.312 113.209 96.312C111.656 96.312 110.135 96.664 108.647 97.368C107.223 98.008 105.767 99.128 104.279 100.728V120.024C105.638 121.112 107.029 121.912 108.453 122.424C109.941 122.936 111.332 123.192 112.627 123.192Z" fill="white"/>
<path d="M32 133.56V121.656H46.7545V82.872H32V70.968H75.8753V82.872H61.1207V121.656H75.8753V133.56H32Z" fill="white"/>
<defs>
<linearGradient id="paint0_linear_15_8" x1="0" y1="0" x2="214" y2="214" gradientUnits="userSpaceOnUse">
<stop stop-color="#6CFFA4"/>
<stop offset="1" stop-color="#666CAF"/>
</linearGradient>
</defs>
</svg>
